<svg t="1714639122502" class="icon" viewBox="0 0 1024 1024" version="1.1" xmlns="http://www.w3.org/2000/svg" p-id="10994" width="200" height="200"><path d="M789.333333 512a128 128 0 0 1 127.914667 123.2L917.333333 640v44.330667c48.533333 8.810667 85.333333 51.264 85.333334 102.336v69.333333A104 104 0 0 1 898.666667 960h-69.333334A104 104 0 0 1 725.333333 856v-69.333333A104 104 0 0 1 829.333333 682.666667H832v-42.666667a42.666667 42.666667 0 0 0-39.466667-42.56L789.333333 597.333333H234.666667a42.666667 42.666667 0 0 0-42.56 39.466667L192 640v42.666667h2.666667A104 104 0 0 1 298.666667 786.666667v69.333333A104 104 0 0 1 194.666667 960h-69.333334A104 104 0 0 1 21.333333 856v-69.333333a104.021333 104.021333 0 0 1 85.333334-102.336V640a128 128 0 0 1 123.2-127.914667L234.666667 512h554.666666z m-242.666666 170.666667a104 104 0 0 1 104 104v69.333333A104 104 0 0 1 546.666667 960h-69.333334a104 104 0 0 1-104-104v-69.333333A104 104 0 0 1 477.333333 682.666667h69.333334zM186.666667 768h-53.333334C118.613333 768 106.666667 779.946667 106.666667 794.666667v53.333333c0 14.72 11.946667 26.666667 26.666666 26.666667h53.333334c14.72 0 26.666667-11.946667 26.666666-26.666667v-53.333333c0-14.72-11.946667-26.666667-26.666666-26.666667z m352 0h-53.333334c-14.72 0-26.666667 11.946667-26.666666 26.666667v53.333333c0 14.72 11.946667 26.666667 26.666666 26.666667h53.333334c14.72 0 26.666667-11.946667 26.666666-26.666667v-53.333333c0-14.72-11.946667-26.666667-26.666666-26.666667z m352 0h-53.333334c-14.72 0-26.666667 11.946667-26.666666 26.666667v53.333333c0 14.72 11.946667 26.666667 26.666666 26.666667h53.333334c14.72 0 26.666667-11.946667 26.666666-26.666667v-53.333333c0-14.72-11.946667-26.666667-26.666666-26.666667zM512 64a42.666667 42.666667 0 0 1 42.666667 42.666667v128h128a42.666667 42.666667 0 1 1 0 85.333333h-128.021334L554.666667 448a42.666667 42.666667 0 1 1-85.333334 0l-0.021333-128H341.333333a42.666667 42.666667 0 1 1 0-85.333333h128V106.666667a42.666667 42.666667 0 0 1 42.666667-42.666667z" fill="#121212" fill-opacity=".88" p-id="10995"></path></svg>