<svg t="1715264016575" class="icon" viewBox="0 0 1024 1024" version="1.1" xmlns="http://www.w3.org/2000/svg" p-id="6323" width="200" height="200"><path d="M924.4 451.7c-22.5-53.3-54.8-101.1-95.8-142.1-41.1-41.1-88.9-73.3-142.1-95.8-55.2-23.3-113.7-35.2-174.1-35.2-60.4 0-118.9 11.8-174.1 35.2-53.3 22.5-101.1 54.8-142.1 95.8-41.1 41.1-73.3 88.9-95.8 142.1-23.3 55.2-35.2 113.7-35.2 174.1 0 71.2 16.3 139.4 48.3 202.4 6.1 12.1 18.5 19.7 32.1 19.7h734.5c15.3-0.3 28.3-10.2 33.2-23.9 30.7-61.9 46.2-128.6 46.2-198.3 0-60.3-11.8-118.9-35.1-174z m-68.1 324.2h-688c-20.7-47.3-31.2-97.7-31.2-150.1 0-100.2 39-194.4 109.9-265.3s165.1-109.9 265.3-109.9 194.4 39 265.3 109.9 109.9 165.1 109.9 265.3c0 52.4-10.5 102.8-31.2 150.1z" fill="#333333" p-id="6324"></path><path d="M512.3 606.7c-3.6 0-7.1 0.3-10.5 0.9l-98.3-98.3c-14.1-14.1-36.9-14.1-50.9 0-14.1 14.1-14.1 36.9 0 50.9l98.3 98.3c-0.6 3.4-0.9 6.9-0.9 10.5 0 34.4 27.9 62.3 62.3 62.3s62.3-27.9 62.3-62.3-27.9-62.3-62.3-62.3z" fill="#333333" p-id="6325"></path><path d="M636.8 329.3c-39.5-16.7-81.4-25.2-124.5-25.2-43.2 0-85.1 8.5-124.5 25.2-38.1 16.1-72.3 39.2-101.7 68.5-29.4 29.4-52.4 63.6-68.5 101.7-16.7 39.5-25.2 81.4-25.2 124.5 0 19.9 16.1 36 36 36s36-16.1 36-36c0-66.2 25.8-128.5 72.6-175.3 46.8-46.8 109.1-72.6 175.3-72.6s128.5 25.8 175.3 72.6c46.8 46.8 72.6 109.1 72.6 175.3 0 19.9 16.1 36 36 36s36-16.1 36-36c0-43.2-8.5-85.1-25.2-124.5-16.1-38.1-39.2-72.3-68.5-101.7-29.4-29.4-63.6-52.4-101.7-68.5z" fill="#333333" p-id="6326"></path></svg>