<svg t="1714492723647" class="icon" viewBox="0 0 1024 1024" version="1.1" xmlns="http://www.w3.org/2000/svg" p-id="7391" width="200" height="200"><path d="M817 737.6H207c-41.5 0-75.2-33.7-75.2-75.2V245.7c0-41.5 33.7-75.2 75.2-75.2h610c41.5 0 75.2 33.7 75.2 75.2v416.7c0 41.4-33.8 75.2-75.2 75.2z m-610-542c-27.6 0-50.1 22.5-50.1 50.1v416.7c0 27.6 22.5 50.1 50.1 50.1h610c27.6 0 50.1-22.5 50.1-50.1V245.7c0-27.6-22.5-50.1-50.1-50.1H207z" fill="#2D2D2D" p-id="7392"></path><path d="M841.6 627.3H182.4V227.5h659.2v399.8z m-634.1-25.1h609.1V252.6H207.5v349.6zM643.7 899H380.3c-26.4 0-47.8-21.4-47.8-47.8s21.5-47.8 47.8-47.8h263.4c26.4 0 47.8 21.4 47.8 47.8S670.1 899 643.7 899z m-263.4-70.5c-12.5 0-22.7 10.2-22.7 22.7s10.2 22.7 22.7 22.7h263.4c12.5 0 22.7-10.2 22.7-22.7s-10.2-22.7-22.7-22.7H380.3z" fill="#2D2D2D" p-id="7393"></path><path d="M442 684.5h25.1v129.9H442zM499.5 684.5h25.1v129.9h-25.1zM556.9 684.5H582v129.9h-25.1z" fill="#2D2D2D" p-id="7394"></path></svg>