<svg t="1716296715036" class="icon" viewBox="0 0 1024 1024" version="1.1" xmlns="http://www.w3.org/2000/svg" p-id="2614" width="200" height="200"><path d="M599.9616 326.0928m-49.664 0a49.664 49.664 0 1 0 99.328 0 49.664 49.664 0 1 0-99.328 0Z" fill="#438CFF" p-id="2615"></path><path d="M1011.8144 937.2672l-234.0352-234.0352c-1.3312-1.3312-3.072-1.8944-4.5568-3.0208-0.3584-0.3584-0.512-0.8192-0.9216-1.1776-1.8432-1.6384-4.1472-2.304-6.1952-3.5328-0.4608-0.2048-0.8192-0.5632-1.28-0.768a37.7344 37.7344 0 0 0-46.6944 7.9872 364.9024 364.9024 0 0 1-275.3024 125.2864 365.4144 365.4144 0 0 1-365.056-365.056c0-201.2672 163.7376-365.0048 365.056-365.0048s365.056 163.7376 365.056 365.0048c0 20.48-1.6896 41.1648-5.12 61.3376a38.2976 38.2976 0 1 0 75.6736 12.6976c4.096-24.3712 6.1952-49.3056 6.1952-74.0352 0-243.6096-198.1952-441.8048-441.856-441.8048S0.9216 219.3408 0.9216 462.9504c0 243.6608 198.1952 441.856 441.856 441.856a441.7536 441.7536 0 0 0 305.2032-122.7776l209.5104 209.5104a38.2464 38.2464 0 0 0 54.272 0 38.4 38.4 0 0 0 0.0512-54.272z" fill="#438CFF" p-id="2616"></path></svg>