<?xml version="1.0" standalone="no"?><!DOCTYPE svg PUBLIC "-//W3C//DTD SVG 1.1//EN" "http://www.w3.org/Graphics/SVG/1.1/DTD/svg11.dtd"><svg t="1573384907387" class="icon" viewBox="0 0 1024 1024" version="1.1" xmlns="http://www.w3.org/2000/svg" p-id="6509" xmlns:xlink="http://www.w3.org/1999/xlink" width="200" height="200"><defs><style type="text/css"></style></defs><path d="M176.06731852 426.40118516c-7.24941431 0-14.49882864-2.20071506-20.71261235-6.86105283-15.53445925-11.3919368-18.90025876-33.39908741-7.37886814-48.93354666 41.0368632-55.66514569 95.14856297-101.88016197 156.50967703-133.46689582 63.43237531-32.75181827 134.8908879-50.09863111 206.60830814-50.09863111 71.58796642 0 142.78757136 17.21735902 206.09049285 49.71026963 61.10220642 31.45728 115.21390617 77.41338864 156.25076938 132.69017285 11.52139061 15.53445925 8.28504494 37.41215605-7.24941432 48.93354666-15.53445925 11.52139061-37.41215605 8.28504494-48.93354666-7.24941432-72.75305086-97.99654717-184.34224987-154.17950815-306.15830125-154.17950815-120.52151309 0-235.21760395 57.99531457-306.80557037 155.08568494-6.86105283 9.45012939-17.47626667 14.36937482-28.22093431 14.36937481zM594.85044939 757.8029827c-8.93231408 0-17.86462815-3.3657995-24.725681-10.22685235l-165.70089876-165.70089876c-13.59265185-13.59265185-13.59265185-35.7292563 0-49.45136198 13.59265185-13.59265185 35.7292563-13.59265185 49.45136198 0l165.70089876 165.70089876c13.59265185 13.59265185 13.59265185 35.7292563 0 49.45136198-6.73159902 6.86105283-15.66391309 10.22685235-24.72568098 10.22685235z" p-id="6510" fill="#8a8a8a"></path><path d="M429.14955061 757.8029827c-8.93231408 0-17.86462815-3.3657995-24.72568098-10.22685235-13.59265185-13.59265185-13.59265185-35.7292563 0-49.45136198l165.44199112-165.44199111c13.59265185-13.59265185 35.7292563-13.59265185 49.45136197 0 13.59265185 13.59265185 13.59265185 35.7292563 0 49.45136197L453.74577778 747.57613035c-6.73159902 6.86105283-15.66391309 10.22685235-24.59622717 10.22685235zM296.97719309 508.99272689c-7.37886815 0-14.88719013-2.33016889-21.23042766-7.11996049-15.40500543-11.65084445-18.25298963-33.65799506-6.60214518-48.93354667 27.96202667-36.76488691 64.59745975-67.1865363 105.76377678-88.02860247C418.01652148 343.03292048 464.61989925 331.89989134 513.29453827 331.89989134s95.2780168 11.13302914 138.38614123 32.88127211c41.16631703 20.84206617 77.6722963 51.26371555 105.63432297 88.02860245 11.65084445 15.40500543 8.80286025 37.28270222-6.60214519 48.93354667-15.40500543 11.65084445-37.28270222 8.80286025-48.93354667-6.60214518-45.3088395-59.41930667-113.9193679-93.4656632-188.48477234-93.46566322-74.56540445 0-143.30538667 34.04635653-188.48477235 93.46566322-6.86105283 9.0617679-17.34681283 13.8515595-27.83257283 13.8515595z" p-id="6511" fill="#8a8a8a"></path></svg>